<?xml version="1.0" standalone="no"?>
<!DOCTYPE svg PUBLIC "-//W3C//DTD SVG 20010904//EN"
 "http://www.w3.org/TR/2001/REC-SVG-20010904/DTD/svg10.dtd">
<svg version="1.0" xmlns="http://www.w3.org/2000/svg"
 width="1024.000000pt" height="1024.000000pt" viewBox="0 0 1024.000000 1024.000000"
 preserveAspectRatio="xMidYMid meet">
 <defs><style>.cls-1{fill:#f15e2c;} .cls-2 { fill: #34a853; }</style></defs>
<g transform="translate(0.000000,1024.000000) scale(0.100000,-0.100000)"
fill="#000000" stroke="none">
<path class="cls-2" d="M7375 8513 c-397 -90 -700 -373 -770 -719 -18 -90 -34 -224 -26 -224
3 0 41 16 86 35 119 51 188 66 282 63 l82 -2 84 84 c108 110 189 236 248 382
46 115 99 308 99 361 0 24 -4 27 -32 26 -18 -1 -42 -3 -53 -6z"/>
<path class="cls-2" d="M5424 8172 c12 -136 37 -275 67 -368 26 -82 34 -96 76 -130 126 -103
236 -257 264 -368 9 -38 22 -56 62 -89 106 -88 156 -156 157 -214 0 -12 -20
-56 -45 -98 -53 -89 -125 -230 -125 -244 0 -8 81 -51 95 -51 2 0 38 62 80 137
77 134 170 271 248 366 31 37 44 46 60 41 43 -14 187 -20 284 -12 170 13 311
50 448 118 110 54 275 168 275 190 0 19 -151 81 -232 97 -101 19 -292 13 -383
-12 -94 -26 -201 -84 -270 -147 -35 -32 -66 -58 -69 -58 -12 0 -6 96 9 145 35
115 85 393 85 473 0 85 -24 217 -41 228 -18 11 -144 -131 -182 -204 -95 -180
-101 -376 -16 -557 18 -38 32 -75 32 -80 0 -8 -136 -196 -173 -238 -4 -5 -5
75 -2 177 8 294 -32 434 -177 625 -122 159 -298 283 -480 335 l-54 16 7 -78z"/>
<path class="cls-2" d="M5020 7788 c0 -144 57 -366 131 -510 121 -235 296 -411 516 -522 103
-51 108 -50 122 33 18 111 14 246 -10 337 -73 281 -242 496 -486 618 -85 42
-211 86 -247 86 -24 0 -26 -3 -26 -42z"/>
<path class="cls-2" d="M6670 7041 c-144 -31 -307 -119 -396 -213 -68 -71 -177 -219 -167
-228 13 -12 199 -57 286 -69 112 -16 279 -14 404 5 189 27 359 96 557 224 l99
64 -44 37 c-89 76 -216 141 -344 175 -95 25 -293 28 -395 5z"/>
<path class="cls-1" d="M5405 6639 c-147 -19 -336 -96 -452 -183 -93 -70 -217 -207 -273
-302 -57 -96 -85 -156 -172 -364 -132 -317 -161 -386 -174 -415 -7 -16 -26
-64 -42 -105 -58 -147 -166 -407 -376 -905 -54 -126 -132 -311 -173 -410 -41
-99 -120 -285 -174 -412 -96 -224 -153 -373 -205 -533 -25 -76 -74 -336 -74
-392 0 -28 2 -30 28 -23 142 34 435 168 607 277 491 309 1251 875 1595 1188
500 454 650 611 822 865 154 227 218 416 218 645 0 422 -248 806 -637 987
-155 72 -357 104 -518 82z m247 -203 c160 -34 305 -116 439 -246 114 -112 188
-236 233 -392 23 -80 19 -91 -10 -33 -44 85 -108 166 -205 260 -144 139 -264
212 -409 250 -68 18 -236 23 -252 7 -5 -5 10 -16 38 -27 26 -10 86 -40 133
-68 307 -176 548 -511 604 -837 8 -44 13 -80 11 -80 -2 0 -18 28 -35 63 -52
102 -113 191 -200 287 -354 395 -764 560 -1101 443 -27 -10 -48 -20 -48 -24 0
-4 24 -10 53 -14 196 -25 294 -52 427 -121 197 -101 370 -255 512 -455 79
-111 134 -230 181 -391 l33 -117 73 72 c78 76 78 66 0 -49 -84 -125 -168 -222
-359 -413 -337 -338 -496 -473 -985 -841 -361 -272 -398 -298 -694 -499 -325
-221 -565 -370 -577 -359 -7 8 49 175 113 338 36 91 80 203 98 250 19 47 55
132 80 190 26 58 66 152 90 210 24 58 77 186 120 285 95 224 284 678 335 806
21 53 57 138 78 190 22 52 77 182 122 289 44 107 102 245 127 305 136 326 226
459 395 585 171 127 384 177 580 136z"/>
<path class="cls-1" d="M5109 5680 c94 -52 236 -165 344 -276 121 -122 214 -267 254 -392 26
-82 53 -239 53 -312 l0 -45 131 132 c127 128 132 133 126 167 -23 141 -288
475 -475 600 -148 98 -311 156 -435 156 l-52 0 54 -30z"/>
<path class="cls-1" d="M5056 5221 c44 -35 157 -153 226 -236 71 -84 158 -282 173 -390 l7
-50 -32 48 c-76 113 -232 263 -365 352 -128 86 -248 125 -449 149 l-49 6 65
-43 c166 -112 335 -255 435 -370 104 -118 197 -282 226 -395 7 -29 16 -54 19
-55 7 -3 228 194 342 305 l90 86 -20 43 c-102 229 -374 485 -601 565 -37 13
-79 24 -92 24 -21 0 -17 -5 25 -39z"/>
<path class="cls-1" d="M4675 4644 c157 -159 272 -353 305 -517 13 -64 9 -82 -11 -45 -6 12
-55 67 -108 122 -134 137 -231 201 -375 245 -37 11 -70 21 -72 21 -3 0 29 -35
71 -77 144 -147 228 -297 272 -485 l25 -110 37 35 c20 19 73 62 118 94 101 75
312 245 336 270 16 19 15 22 -24 84 -54 83 -216 242 -313 307 -72 48 -198 98
-293 115 -31 6 -30 4 32 -59z"/>
<path class="cls-1" d="M4208 4176 c162 -170 244 -306 282 -471 13 -55 25 -101 26 -103 2 -3
45 30 176 135 52 42 56 47 47 72 -23 60 -150 206 -247 282 -114 91 -233 151
-341 172 -32 7 -30 3 57 -87z"/>
</g>
</svg>
