<?xml version="1.0" standalone="no"?>
<!DOCTYPE svg PUBLIC "-//W3C//DTD SVG 20010904//EN"
 "http://www.w3.org/TR/2001/REC-SVG-20010904/DTD/svg10.dtd">
<svg version="1.0" xmlns="http://www.w3.org/2000/svg"
 width="1024.000000pt" height="1024.000000pt" viewBox="0 0 1024.000000 1024.000000"
 preserveAspectRatio="xMidYMid meet">
<defs><style>.cls-1{fill:gray;}</style></defs>
<g transform="translate(0.000000,1024.000000) scale(0.100000,-0.100000)"
fill="#000000" stroke="none">
<path class="cls-1" d="M7865 5952 c-68 -44 -70 -48 -73 -233 l-3 -169 -92 0 c-114 0 -158
-12 -191 -51 -45 -54 -30 -144 31 -184 22 -15 50 -19 138 -20 l110 -2 5 -344
c6 -375 7 -383 68 -472 37 -52 118 -129 162 -152 121 -63 288 -68 400 -11 116
58 118 195 3 235 -38 14 -47 13 -118 -8 -55 -16 -89 -20 -117 -16 -44 8 -101
52 -124 97 -19 37 -25 189 -17 466 l6 213 166 -7 c161 -6 167 -5 210 18 79 41
100 119 49 184 -37 47 -72 54 -256 54 l-170 0 -4 158 c-4 164 -12 195 -56 235
-31 28 -91 32 -127 9z"/>
<path class="cls-1" d="M2248 5935 c-198 -37 -374 -148 -503 -315 -143 -186 -198 -468 -138
-710 36 -147 155 -332 282 -436 75 -63 215 -134 311 -160 89 -24 272 -24 360
-1 115 30 246 102 322 176 60 59 68 71 68 105 0 48 -29 90 -80 116 -64 33 -91
27 -161 -35 -99 -88 -193 -124 -324 -125 -202 0 -385 120 -483 315 -63 126
-73 300 -27 445 33 102 76 171 154 242 76 70 158 113 259 133 151 31 289 -4
431 -109 68 -50 101 -57 150 -31 49 25 81 72 81 118 0 38 -6 47 -59 98 -71 67
-192 132 -295 159 -105 27 -252 33 -348 15z"/>
<path class="cls-1" d="M4609 5560 c-47 -13 -71 -31 -85 -65 -20 -50 -21 -1099 0 -1149 30
-72 114 -98 183 -56 57 35 58 35 63 410 5 332 6 347 28 394 34 76 84 129 153
166 84 44 182 52 278 21 53 -18 70 -19 103 -10 93 25 118 115 53 188 -45 49
-108 76 -212 91 -145 19 -281 -25 -367 -121 l-43 -47 0 43 c0 45 -33 108 -63
121 -39 16 -67 20 -91 14z"/>
<path class="cls-1" d="M5623 5555 c-17 -7 -40 -26 -50 -41 -17 -26 -18 -65 -21 -559 -2
-291 0 -549 3 -573 10 -65 49 -103 111 -109 38 -3 57 1 82 17 59 37 62 55 62
404 0 287 2 320 20 379 28 90 83 157 157 193 52 25 68 27 153 26 75 -1 103 3
135 18 45 22 75 64 75 105 0 38 -27 91 -56 110 -61 40 -236 37 -331 -5 -54
-24 -118 -75 -143 -114 l-20 -31 0 49 c0 61 -30 113 -76 132 -41 17 -60 17
-101 -1z"/>
<path class="cls-1" d="M4022 5544 c-31 -21 -52 -66 -52 -109 l0 -36 -47 39 c-93 77 -195
112 -328 112 -146 0 -280 -53 -394 -156 -108 -99 -128 -163 -70 -229 38 -42
78 -65 115 -65 21 0 45 18 103 79 90 92 141 115 256 114 137 -2 254 -76 321
-203 27 -51 29 -63 29 -165 0 -98 -3 -116 -26 -165 -34 -73 -106 -145 -177
-178 -47 -22 -71 -26 -142 -27 -125 0 -207 41 -281 141 -22 30 -51 59 -64 64
-36 14 -92 -7 -136 -51 -33 -33 -39 -45 -39 -81 0 -52 22 -90 87 -152 212
-206 497 -241 723 -91 l65 44 5 -42 c8 -55 24 -83 60 -102 57 -29 138 -7 165
46 22 42 22 1126 0 1169 -22 42 -53 60 -105 60 -25 0 -56 -7 -68 -16z"/>
<path class="cls-1" d="M6740 5534 c-189 -50 -334 -171 -415 -346 -35 -77 -65 -200 -65 -268
0 -66 30 -191 61 -255 97 -202 276 -336 489 -365 72 -10 100 -10 180 4 141 25
224 69 330 175 146 147 195 271 188 471 -8 182 -54 285 -193 426 -87 87 -158
129 -271 158 -77 20 -230 20 -304 0z m273 -261 c69 -22 158 -107 199 -191 30
-60 33 -75 33 -157 0 -80 -3 -97 -32 -157 -38 -81 -114 -160 -181 -191 -36
-16 -67 -21 -137 -21 -77 -1 -98 3 -148 26 -71 34 -146 109 -184 185 -25 52
-28 68 -28 158 0 88 3 107 27 157 81 173 264 250 451 191z"/>
</g>
</svg>
