<?xml version="1.0" standalone="no"?>
<!DOCTYPE svg PUBLIC "-//W3C//DTD SVG 20010904//EN"
 "http://www.w3.org/TR/2001/REC-SVG-20010904/DTD/svg10.dtd">
<svg version="1.0" xmlns="http://www.w3.org/2000/svg"
 width="1280.000000pt" height="720.000000pt" viewBox="0 0 1280.000000 720.000000"
 preserveAspectRatio="xMidYMid meet">
<defs><style>.cls-1{fill:#f15e2c;} .cls-2 { fill: #34a853; }</style></defs>
<g transform="translate(0.000000,720.000000) scale(0.100000,-0.100000)"
fill="#000000" stroke="none">
<path class="cls-2" d="M469 7133 c-20 -49 -23 -269 -5 -352 24 -112 86 -230 165 -310 74
-76 189 -151 200 -132 4 7 9 40 10 74 2 72 15 126 43 181 18 35 19 44 8 80
-19 64 -84 187 -129 243 -69 88 -243 243 -272 243 -5 0 -14 -12 -20 -27z"/>
<path d="M2905 6774 c-27 -15 -111 -75 -185 -134 -214 -169 -635 -498 -749
-585 l-105 -80 100 -7 c160 -10 286 -61 399 -161 l40 -35 60 48 c33 26 177
136 320 245 354 269 418 324 449 388 54 107 22 247 -72 312 -38 26 -54 30
-125 33 -73 3 -87 0 -132 -24z m139 -180 c9 -4 16 -18 16 -33 0 -22 -15 -38
-77 -86 -42 -33 -180 -141 -307 -241 -127 -99 -243 -188 -258 -198 -36 -23
-92 -18 -96 9 -2 15 19 37 80 85 45 36 170 135 278 220 336 265 326 259 364
244z"/>
<path class="cls-2" d="M1064 6735 c-56 -57 -88 -113 -132 -225 -21 -54 -25 -82 -25 -160 0
-59 6 -114 16 -145 9 -27 15 -51 12 -53 -6 -7 -46 19 -147 94 -127 94 -219
148 -287 168 -78 23 -94 21 -85 -6 21 -71 72 -153 125 -203 87 -83 194 -125
318 -125 l47 0 48 -86 c26 -47 46 -87 44 -89 -1 -2 -52 19 -111 46 -136 63
-212 83 -307 82 -157 -1 -340 -76 -457 -188 l-67 -64 29 -11 c62 -24 193 -58
265 -70 74 -12 76 -12 150 18 97 39 163 52 258 52 55 0 89 6 120 20 64 29 118
41 147 34 17 -4 49 -37 94 -98 90 -120 90 -120 126 -92 28 23 29 24 12 47 -56
76 -169 253 -195 305 l-31 61 52 104 c75 149 92 223 92 394 0 151 -16 245 -42
245 -8 0 -39 -25 -69 -55z"/>
<path class="cls-2" d="M1515 6643 c-112 -61 -210 -164 -264 -277 -46 -97 -61 -161 -61 -264
0 -93 19 -170 61 -255 51 -99 59 -110 77 -95 36 30 127 167 167 251 61 128 85
222 92 353 6 123 -12 304 -31 304 -6 -1 -24 -8 -41 -17z"/>
<path d="M3460 6309 c-23 -17 -163 -125 -309 -241 -146 -115 -353 -278 -459
-361 -164 -130 -192 -155 -187 -174 3 -12 33 -82 66 -157 l62 -136 38 31 38
30 -16 45 c-28 83 -50 62 442 444 313 243 458 361 487 395 29 33 23 89 -13
124 -42 42 -90 42 -149 0z"/>
<path d="M3449 5851 c-60 -38 -195 -156 -215 -186 -43 -66 17 -160 90 -141 30
7 261 189 270 212 15 39 6 86 -23 115 -37 36 -65 37 -122 0z"/>
<path class="cls-1" d="M1700 5790 c-165 -20 -321 -99 -447 -225 -64 -65 -89 -100 -121 -166
-56 -117 -65 -157 -66 -294 -1 -138 8 -180 69 -310 47 -99 98 -166 255 -335
58 -62 118 -127 133 -144 16 -17 61 -65 101 -106 58 -61 301 -322 341 -366 23
-26 226 -245 290 -314 39 -41 122 -131 184 -200 214 -233 402 -414 502 -483
53 -37 104 -67 112 -67 24 0 30 69 24 288 -6 224 -27 363 -128 852 -111 533
-275 1065 -416 1345 -94 188 -202 326 -315 403 -143 98 -341 144 -518 122z
m220 -149 c20 -6 13 -9 -35 -14 -171 -21 -359 -113 -462 -226 -34 -39 -99
-158 -90 -167 3 -3 34 16 70 44 113 86 206 132 347 170 85 22 333 24 400 2 43
-13 44 -14 15 -17 -348 -34 -666 -206 -790 -428 -38 -68 -65 -153 -65 -210 0
-27 6 -21 55 52 128 191 295 304 553 374 103 27 200 33 326 20 59 -7 110 -10
112 -8 2 2 -3 23 -11 47 -16 45 -15 59 3 38 28 -35 116 -218 165 -343 125
-321 193 -562 311 -1110 63 -293 141 -780 134 -844 l-3 -32 -115 114 c-135
133 -244 246 -395 412 -61 66 -129 140 -151 165 -23 25 -56 61 -74 80 -51 56
-152 163 -370 396 -47 49 -110 117 -140 150 -30 32 -109 118 -175 189 -158
170 -207 229 -250 301 -50 83 -86 205 -86 297 -1 104 8 140 51 233 31 63 54
95 109 146 75 71 192 136 291 162 57 15 226 19 270 7z"/>
<path class="cls-1" d="M2188 5200 c-69 -12 -221 -57 -283 -84 -110 -49 -241 -159 -293 -247
-30 -49 -28 -55 11 -30 65 44 210 113 300 143 75 25 112 32 202 35 107 4 174
-7 312 -52 21 -7 19 -1 -21 106 -24 62 -52 119 -62 126 -19 14 -91 15 -166 3z"/>
<path class="cls-1" d="M2270 4909 c-121 -32 -269 -109 -345 -180 -36 -34 -65 -65 -65 -69 0
-4 51 12 113 35 148 56 238 70 359 55 51 -6 94 -13 97 -15 4 -5 1 -6 -89 -30
-146 -37 -293 -119 -381 -212 -48 -50 -122 -153 -115 -160 2 -2 32 13 67 33
103 60 261 132 346 156 62 17 105 22 210 22 128 1 132 2 127 21 -2 11 -30 98
-61 193 l-56 172 -66 -1 c-36 0 -100 -9 -141 -20z"/>
<path class="cls-1" d="M2475 4496 c-138 -44 -225 -94 -304 -173 -41 -40 -72 -76 -69 -78 2
-3 40 6 84 20 109 34 222 49 313 42 125 -10 126 -16 10 -57 -57 -20 -126 -49
-153 -65 -56 -33 -164 -130 -155 -139 4 -4 29 2 56 13 105 41 254 56 371 35
47 -8 86 -13 88 -11 4 4 -78 346 -97 405 -9 27 -15 32 -42 32 -18 -1 -64 -11
-102 -24z"/>
<path class="cls-1" d="M2565 4019 c-99 -33 -158 -64 -223 -117 -56 -45 -104 -96 -93 -100 4
-1 42 8 84 22 121 40 189 49 295 43 53 -3 108 -9 121 -13 22 -7 23 -5 16 33
-3 23 -14 67 -24 99 -16 56 -19 59 -52 62 -18 1 -74 -12 -124 -29z"/>
<path d="M3685 5664 c-66 -53 -291 -232 -500 -397 -209 -165 -382 -302 -384
-304 -3 -2 1 -20 8 -41 22 -62 181 -418 196 -438 13 -18 15 -17 52 12 21 17
128 100 238 184 257 198 573 451 604 483 42 46 27 123 -29 152 -61 32 -56 35
-462 -286 -276 -219 -343 -269 -360 -269 -5 0 -20 11 -34 25 -23 23 -24 27
-10 53 13 26 158 146 651 537 280 223 285 228 285 283 0 59 -41 102 -97 102
-34 0 -54 -12 -158 -96z"/>
<path class="cls-2" d="M615 5680 c-105 -21 -215 -81 -307 -169 -85 -79 -97 -99 -73 -117 45
-33 267 -74 365 -68 185 11 333 62 467 163 74 55 82 69 51 93 -40 30 -141 76
-203 93 -63 16 -230 19 -300 5z"/>
<path d="M789 4909 c-63 -50 -230 -181 -372 -291 -141 -110 -268 -214 -282
-230 -36 -43 -34 -100 4 -139 61 -60 87 -46 446 239 132 105 252 194 267 197
35 8 82 -14 86 -40 4 -27 -24 -52 -278 -251 -328 -256 -423 -333 -444 -360
-42 -56 -11 -144 55 -158 47 -9 82 11 269 160 97 76 254 201 350 276 96 75
196 156 222 180 l48 43 -75 90 c-89 107 -137 197 -160 300 -9 41 -18 75 -20
75 -1 0 -54 -41 -116 -91z"/>
<path d="M3714 4736 c-177 -133 -629 -499 -632 -511 -3 -14 192 -481 209 -499
4 -5 18 0 32 10 13 11 62 48 108 83 186 144 420 335 439 358 31 39 27 103 -7
135 -39 36 -66 42 -103 23 -16 -8 -103 -74 -192 -146 -89 -72 -175 -137 -191
-145 -34 -18 -62 -11 -83 22 -31 46 -8 72 230 256 332 258 344 268 366 295 22
28 26 82 10 114 -6 10 -24 26 -40 34 -49 25 -83 19 -146 -29z"/>
<path d="M1255 4188 c-124 -100 -571 -450 -735 -576 -74 -57 -140 -114 -147
-126 -38 -66 14 -156 90 -156 12 0 40 12 62 27 37 24 331 254 693 540 79 62
149 113 156 113 8 0 24 -8 36 -18 17 -13 21 -24 16 -40 -4 -12 -76 -75 -159
-140 -311 -242 -493 -386 -525 -416 -45 -41 -55 -70 -42 -112 25 -75 95 -85
186 -25 32 21 131 95 219 165 88 69 253 199 368 288 114 89 207 165 207 168 0
6 -194 240 -276 333 -23 26 -45 47 -50 47 -5 0 -49 -33 -99 -72z"/>
<path d="M1615 3677 c-468 -365 -677 -530 -722 -572 -48 -42 -53 -51 -53 -89
0 -33 6 -48 28 -69 56 -54 125 -31 267 88 51 42 467 367 652 509 91 69 101 80
90 95 -39 56 -113 141 -122 140 -5 0 -68 -46 -140 -102z"/>
<path d="M2010 3432 c-19 -16 -141 -111 -270 -211 -129 -100 -257 -200 -284
-223 -67 -58 -96 -122 -96 -214 0 -63 4 -76 32 -119 17 -26 52 -61 77 -76 39
-25 54 -29 120 -29 94 0 120 14 306 162 217 172 485 391 485 395 0 11 -313
343 -324 343 -6 0 -27 -13 -46 -28z m34 -258 c21 -8 20 -47 -1 -72 -10 -11
-109 -92 -221 -181 -211 -168 -244 -185 -261 -138 -5 12 -6 27 -2 34 3 6 67
57 141 113 74 56 158 121 185 144 47 40 135 106 141 106 1 0 9 -3 18 -6z"/>
</g>
</svg>
